<mxfile host="Electron" agent="Mozilla/5.0 (Windows NT 10.0; Win64; x64) AppleWebKit/537.36 (KHTML, like Gecko) draw.io/24.7.17 Chrome/128.0.6613.36 Electron/32.0.1 Safari/537.36" version="24.7.17">
  <diagram name="expfuel" id="blD7ZZ_PqU-iT5JnfKSL">
    <mxGraphModel dx="1208" dy="872" grid="1" gridSize="10" guides="1" tooltips="1" connect="1" arrows="1" fold="1" page="1" pageScale="1" pageWidth="980" pageHeight="690" math="0" shadow="0">
      <root>
        <mxCell id="0" />
        <mxCell id="1" parent="0" />
        <mxCell id="xJTKoWSTELKvaRM87RX5-2" value="" style="shape=mxgraph.signs.transportation.helicopter;html=1;pointerEvents=1;fillColor=#004C99;strokeColor=none;verticalLabelPosition=bottom;verticalAlign=top;align=center;rotation=-30;" vertex="1" parent="1">
          <mxGeometry x="98.25" y="238" width="31.75" height="20" as="geometry" />
        </mxCell>
        <mxCell id="xJTKoWSTELKvaRM87RX5-11" value="" style="curved=1;endArrow=classic;html=1;rounded=0;strokeColor=#004C99;strokeWidth=3;dashed=1;" edge="1" parent="1">
          <mxGeometry width="50" height="50" relative="1" as="geometry">
            <mxPoint x="140" y="260" as="sourcePoint" />
            <mxPoint x="390" y="260" as="targetPoint" />
            <Array as="points">
              <mxPoint x="260" y="180" />
            </Array>
          </mxGeometry>
        </mxCell>
        <mxCell id="xJTKoWSTELKvaRM87RX5-12" value="" style="endArrow=none;html=1;rounded=0;strokeWidth=5;strokeColor=#B3B3B3;" edge="1" parent="1" source="xJTKoWSTELKvaRM87RX5-30">
          <mxGeometry width="50" height="50" relative="1" as="geometry">
            <mxPoint x="120" y="279.5" as="sourcePoint" />
            <mxPoint x="240" y="279.5" as="targetPoint" />
          </mxGeometry>
        </mxCell>
        <mxCell id="xJTKoWSTELKvaRM87RX5-13" value="" style="endArrow=none;html=1;rounded=0;strokeWidth=5;strokeColor=#B3B3B3;" edge="1" parent="1" source="xJTKoWSTELKvaRM87RX5-19">
          <mxGeometry width="50" height="50" relative="1" as="geometry">
            <mxPoint x="360" y="280" as="sourcePoint" />
            <mxPoint x="800" y="280" as="targetPoint" />
          </mxGeometry>
        </mxCell>
        <mxCell id="xJTKoWSTELKvaRM87RX5-14" value="" style="endArrow=none;dashed=1;html=1;dashPattern=1 3;strokeWidth=5;rounded=0;strokeColor=#B3B3B3;" edge="1" parent="1">
          <mxGeometry width="50" height="50" relative="1" as="geometry">
            <mxPoint x="250" y="280" as="sourcePoint" />
            <mxPoint x="330" y="280" as="targetPoint" />
          </mxGeometry>
        </mxCell>
        <mxCell id="xJTKoWSTELKvaRM87RX5-17" value="" style="endArrow=none;html=1;rounded=0;strokeWidth=5;strokeColor=#B3B3B3;" edge="1" parent="1" target="xJTKoWSTELKvaRM87RX5-16">
          <mxGeometry width="50" height="50" relative="1" as="geometry">
            <mxPoint x="320" y="280" as="sourcePoint" />
            <mxPoint x="640" y="280" as="targetPoint" />
          </mxGeometry>
        </mxCell>
        <mxCell id="xJTKoWSTELKvaRM87RX5-20" value="" style="endArrow=none;html=1;rounded=0;strokeWidth=5;strokeColor=#B3B3B3;" edge="1" parent="1" source="xJTKoWSTELKvaRM87RX5-21" target="xJTKoWSTELKvaRM87RX5-19">
          <mxGeometry width="50" height="50" relative="1" as="geometry">
            <mxPoint x="450" y="280" as="sourcePoint" />
            <mxPoint x="840" y="280" as="targetPoint" />
          </mxGeometry>
        </mxCell>
        <mxCell id="xJTKoWSTELKvaRM87RX5-22" value="" style="endArrow=none;html=1;rounded=0;strokeWidth=5;strokeColor=#B3B3B3;" edge="1" parent="1" source="xJTKoWSTELKvaRM87RX5-16" target="xJTKoWSTELKvaRM87RX5-21">
          <mxGeometry width="50" height="50" relative="1" as="geometry">
            <mxPoint x="450" y="280" as="sourcePoint" />
            <mxPoint x="680" y="280" as="targetPoint" />
          </mxGeometry>
        </mxCell>
        <mxCell id="xJTKoWSTELKvaRM87RX5-23" value="" style="curved=1;endArrow=classic;html=1;rounded=0;strokeColor=#3399FF;strokeWidth=3;dashed=1;" edge="1" parent="1">
          <mxGeometry width="50" height="50" relative="1" as="geometry">
            <mxPoint x="140" y="300" as="sourcePoint" />
            <mxPoint x="700" y="300" as="targetPoint" />
            <Array as="points">
              <mxPoint x="420" y="400" />
            </Array>
          </mxGeometry>
        </mxCell>
        <mxCell id="xJTKoWSTELKvaRM87RX5-24" value="" style="shape=mxgraph.signs.sports.rv;html=1;pointerEvents=1;fillColor=#004C99;strokeColor=none;verticalLabelPosition=bottom;verticalAlign=top;align=center;" vertex="1" parent="1">
          <mxGeometry x="400" y="238" width="31.94" height="20" as="geometry" />
        </mxCell>
        <mxCell id="xJTKoWSTELKvaRM87RX5-25" value="" style="shape=mxgraph.signs.sports.rv;html=1;pointerEvents=1;fillColor=#3399FF;strokeColor=none;verticalLabelPosition=bottom;verticalAlign=top;align=center;flipH=1;fontColor=#3399FF;" vertex="1" parent="1">
          <mxGeometry x="690" y="238" width="31.94" height="20" as="geometry" />
        </mxCell>
        <mxCell id="xJTKoWSTELKvaRM87RX5-26" value="" style="shape=mxgraph.signs.transportation.helicopter;html=1;pointerEvents=1;fillColor=#3399FF;strokeColor=none;verticalLabelPosition=bottom;verticalAlign=top;align=center;rotation=30;fontColor=#3399FF;" vertex="1" parent="1">
          <mxGeometry x="98.25" y="300" width="31.75" height="20" as="geometry" />
        </mxCell>
        <mxCell id="xJTKoWSTELKvaRM87RX5-16" value="" style="shape=waypoint;sketch=0;fillStyle=solid;size=6;pointerEvents=1;points=[];fillColor=none;resizable=0;rotatable=0;perimeter=centerPerimeter;snapToPoint=1;strokeWidth=10;strokeColor=#00CC00;" vertex="1" parent="1">
          <mxGeometry x="390" y="270" width="20" height="20" as="geometry" />
        </mxCell>
        <mxCell id="xJTKoWSTELKvaRM87RX5-19" value="" style="shape=waypoint;sketch=0;fillStyle=solid;size=6;pointerEvents=1;points=[];fillColor=none;resizable=0;rotatable=0;perimeter=centerPerimeter;snapToPoint=1;strokeWidth=10;strokeColor=#00CC00;" vertex="1" parent="1">
          <mxGeometry x="710" y="270" width="20" height="20" as="geometry" />
        </mxCell>
        <mxCell id="xJTKoWSTELKvaRM87RX5-21" value="" style="shape=waypoint;sketch=0;fillStyle=solid;size=6;pointerEvents=1;points=[];fillColor=none;resizable=0;rotatable=0;perimeter=centerPerimeter;snapToPoint=1;strokeWidth=10;strokeColor=#FF3333;" vertex="1" parent="1">
          <mxGeometry x="570" y="270" width="20" height="20" as="geometry" />
        </mxCell>
        <mxCell id="xJTKoWSTELKvaRM87RX5-27" value="d[j]" style="text;html=1;align=center;verticalAlign=middle;whiteSpace=wrap;rounded=0;fontSize=16;fontFamily=consolas;fontColor=#FF3333;" vertex="1" parent="1">
          <mxGeometry x="549.25" y="290" width="61.5" height="30" as="geometry" />
        </mxCell>
        <mxCell id="xJTKoWSTELKvaRM87RX5-31" value="" style="endArrow=none;html=1;rounded=0;strokeWidth=5;strokeColor=#999999;" edge="1" parent="1" target="xJTKoWSTELKvaRM87RX5-30">
          <mxGeometry width="50" height="50" relative="1" as="geometry">
            <mxPoint x="120" y="279.5" as="sourcePoint" />
            <mxPoint x="240" y="279.5" as="targetPoint" />
          </mxGeometry>
        </mxCell>
        <mxCell id="xJTKoWSTELKvaRM87RX5-30" value="" style="shape=waypoint;sketch=0;fillStyle=solid;size=6;pointerEvents=1;points=[];fillColor=none;resizable=0;rotatable=0;perimeter=centerPerimeter;snapToPoint=1;strokeWidth=10;strokeColor=#00CC00;" vertex="1" parent="1">
          <mxGeometry x="110" y="270" width="20" height="20" as="geometry" />
        </mxCell>
        <mxCell id="xJTKoWSTELKvaRM87RX5-32" value="" style="endArrow=classic;html=1;rounded=0;strokeColor=#004C99;strokeWidth=3;dashed=1;" edge="1" parent="1">
          <mxGeometry width="50" height="50" relative="1" as="geometry">
            <mxPoint x="420" y="270" as="sourcePoint" />
            <mxPoint x="560" y="270" as="targetPoint" />
          </mxGeometry>
        </mxCell>
        <mxCell id="xJTKoWSTELKvaRM87RX5-34" value="" style="endArrow=classic;html=1;rounded=0;strokeColor=#3399FF;strokeWidth=3;dashed=1;" edge="1" parent="1">
          <mxGeometry width="50" height="50" relative="1" as="geometry">
            <mxPoint x="700" y="270" as="sourcePoint" />
            <mxPoint x="600" y="270" as="targetPoint" />
          </mxGeometry>
        </mxCell>
        <mxCell id="xJTKoWSTELKvaRM87RX5-35" value="start" style="text;html=1;align=center;verticalAlign=middle;whiteSpace=wrap;rounded=0;fontFamily=consolas;fontSize=16;fontColor=#00CC00;" vertex="1" parent="1">
          <mxGeometry x="50" y="265" width="60" height="30" as="geometry" />
        </mxCell>
        <mxCell id="xJTKoWSTELKvaRM87RX5-37" value="" style="shape=mxgraph.signs.transportation.helicopter;html=1;pointerEvents=1;fillColor=#004C99;strokeColor=none;verticalLabelPosition=bottom;verticalAlign=top;align=center;rotation=-30;" vertex="1" parent="1">
          <mxGeometry x="98.25" y="508" width="31.75" height="20" as="geometry" />
        </mxCell>
        <mxCell id="xJTKoWSTELKvaRM87RX5-38" value="" style="curved=1;endArrow=classic;html=1;rounded=0;strokeColor=#004C99;strokeWidth=3;dashed=1;" edge="1" parent="1">
          <mxGeometry width="50" height="50" relative="1" as="geometry">
            <mxPoint x="140" y="530" as="sourcePoint" />
            <mxPoint x="390" y="530" as="targetPoint" />
            <Array as="points">
              <mxPoint x="260" y="450" />
            </Array>
          </mxGeometry>
        </mxCell>
        <mxCell id="xJTKoWSTELKvaRM87RX5-39" value="" style="endArrow=none;html=1;rounded=0;strokeWidth=5;strokeColor=#B3B3B3;" edge="1" parent="1" source="xJTKoWSTELKvaRM87RX5-56">
          <mxGeometry width="50" height="50" relative="1" as="geometry">
            <mxPoint x="120" y="549.5" as="sourcePoint" />
            <mxPoint x="240" y="549.5" as="targetPoint" />
          </mxGeometry>
        </mxCell>
        <mxCell id="xJTKoWSTELKvaRM87RX5-40" value="" style="endArrow=none;html=1;rounded=0;strokeWidth=5;strokeColor=#B3B3B3;" edge="1" parent="1" source="xJTKoWSTELKvaRM87RX5-52">
          <mxGeometry width="50" height="50" relative="1" as="geometry">
            <mxPoint x="360" y="550" as="sourcePoint" />
            <mxPoint x="800" y="550" as="targetPoint" />
          </mxGeometry>
        </mxCell>
        <mxCell id="xJTKoWSTELKvaRM87RX5-41" value="" style="endArrow=none;dashed=1;html=1;dashPattern=1 3;strokeWidth=5;rounded=0;strokeColor=#B3B3B3;" edge="1" parent="1">
          <mxGeometry width="50" height="50" relative="1" as="geometry">
            <mxPoint x="250" y="550" as="sourcePoint" />
            <mxPoint x="330" y="550" as="targetPoint" />
          </mxGeometry>
        </mxCell>
        <mxCell id="xJTKoWSTELKvaRM87RX5-42" value="&lt;span style=&quot;font-family: consolas; font-size: 16px;&quot;&gt;a[left - 1]&lt;/span&gt;" style="text;html=1;align=center;verticalAlign=middle;whiteSpace=wrap;rounded=0;fontColor=#00CC00;" vertex="1" parent="1">
          <mxGeometry x="345" y="565" width="110" height="30" as="geometry" />
        </mxCell>
        <mxCell id="xJTKoWSTELKvaRM87RX5-43" value="" style="endArrow=none;html=1;rounded=0;strokeWidth=5;strokeColor=#B3B3B3;" edge="1" parent="1" target="xJTKoWSTELKvaRM87RX5-51">
          <mxGeometry width="50" height="50" relative="1" as="geometry">
            <mxPoint x="320" y="550" as="sourcePoint" />
            <mxPoint x="640" y="550" as="targetPoint" />
          </mxGeometry>
        </mxCell>
        <mxCell id="xJTKoWSTELKvaRM87RX5-44" value="&lt;span style=&quot;font-family: consolas; font-size: 16px;&quot;&gt;a[left&lt;/span&gt;&lt;span style=&quot;font-family: consolas; font-size: 16px; background-color: initial;&quot;&gt;]&lt;/span&gt;" style="text;html=1;align=center;verticalAlign=middle;whiteSpace=wrap;rounded=0;fontColor=#00CC00;" vertex="1" parent="1">
          <mxGeometry x="700" y="560" width="75" height="30" as="geometry" />
        </mxCell>
        <mxCell id="xJTKoWSTELKvaRM87RX5-45" value="" style="endArrow=none;html=1;rounded=0;strokeWidth=5;strokeColor=#B3B3B3;" edge="1" parent="1" source="xJTKoWSTELKvaRM87RX5-53" target="xJTKoWSTELKvaRM87RX5-52">
          <mxGeometry width="50" height="50" relative="1" as="geometry">
            <mxPoint x="450" y="550" as="sourcePoint" />
            <mxPoint x="840" y="550" as="targetPoint" />
          </mxGeometry>
        </mxCell>
        <mxCell id="xJTKoWSTELKvaRM87RX5-46" value="" style="endArrow=none;html=1;rounded=0;strokeWidth=5;strokeColor=#B3B3B3;" edge="1" parent="1" source="xJTKoWSTELKvaRM87RX5-51" target="xJTKoWSTELKvaRM87RX5-53">
          <mxGeometry width="50" height="50" relative="1" as="geometry">
            <mxPoint x="450" y="550" as="sourcePoint" />
            <mxPoint x="680" y="550" as="targetPoint" />
          </mxGeometry>
        </mxCell>
        <mxCell id="xJTKoWSTELKvaRM87RX5-47" value="" style="curved=1;endArrow=classic;html=1;rounded=0;strokeColor=#3399FF;strokeWidth=3;dashed=1;" edge="1" parent="1">
          <mxGeometry width="50" height="50" relative="1" as="geometry">
            <mxPoint x="140" y="570" as="sourcePoint" />
            <mxPoint x="700" y="570" as="targetPoint" />
            <Array as="points">
              <mxPoint x="420" y="670" />
            </Array>
          </mxGeometry>
        </mxCell>
        <mxCell id="xJTKoWSTELKvaRM87RX5-48" value="" style="shape=mxgraph.signs.sports.rv;html=1;pointerEvents=1;fillColor=#004C99;strokeColor=none;verticalLabelPosition=bottom;verticalAlign=top;align=center;" vertex="1" parent="1">
          <mxGeometry x="400" y="508" width="31.94" height="20" as="geometry" />
        </mxCell>
        <mxCell id="xJTKoWSTELKvaRM87RX5-49" value="" style="shape=mxgraph.signs.sports.rv;html=1;pointerEvents=1;fillColor=#3399FF;strokeColor=none;verticalLabelPosition=bottom;verticalAlign=top;align=center;flipH=1;fontColor=#3399FF;" vertex="1" parent="1">
          <mxGeometry x="690" y="508" width="31.94" height="20" as="geometry" />
        </mxCell>
        <mxCell id="xJTKoWSTELKvaRM87RX5-50" value="" style="shape=mxgraph.signs.transportation.helicopter;html=1;pointerEvents=1;fillColor=#3399FF;strokeColor=none;verticalLabelPosition=bottom;verticalAlign=top;align=center;rotation=30;fontColor=#3399FF;" vertex="1" parent="1">
          <mxGeometry x="98.25" y="570" width="31.75" height="20" as="geometry" />
        </mxCell>
        <mxCell id="xJTKoWSTELKvaRM87RX5-51" value="" style="shape=waypoint;sketch=0;fillStyle=solid;size=6;pointerEvents=1;points=[];fillColor=none;resizable=0;rotatable=0;perimeter=centerPerimeter;snapToPoint=1;strokeWidth=10;strokeColor=#00CC00;" vertex="1" parent="1">
          <mxGeometry x="390" y="540" width="20" height="20" as="geometry" />
        </mxCell>
        <mxCell id="xJTKoWSTELKvaRM87RX5-52" value="" style="shape=waypoint;sketch=0;fillStyle=solid;size=6;pointerEvents=1;points=[];fillColor=none;resizable=0;rotatable=0;perimeter=centerPerimeter;snapToPoint=1;strokeWidth=10;strokeColor=#00CC00;" vertex="1" parent="1">
          <mxGeometry x="710" y="540" width="20" height="20" as="geometry" />
        </mxCell>
        <mxCell id="xJTKoWSTELKvaRM87RX5-53" value="" style="shape=waypoint;sketch=0;fillStyle=solid;size=6;pointerEvents=1;points=[];fillColor=none;resizable=0;rotatable=0;perimeter=centerPerimeter;snapToPoint=1;strokeWidth=10;strokeColor=#FF3333;" vertex="1" parent="1">
          <mxGeometry x="570" y="540" width="20" height="20" as="geometry" />
        </mxCell>
        <mxCell id="xJTKoWSTELKvaRM87RX5-54" value="d[j]" style="text;html=1;align=center;verticalAlign=middle;whiteSpace=wrap;rounded=0;fontSize=16;fontFamily=consolas;fontColor=#FF3333;" vertex="1" parent="1">
          <mxGeometry x="549.25" y="560" width="61.5" height="30" as="geometry" />
        </mxCell>
        <mxCell id="xJTKoWSTELKvaRM87RX5-55" value="" style="endArrow=none;html=1;rounded=0;strokeWidth=5;strokeColor=#999999;" edge="1" parent="1" target="xJTKoWSTELKvaRM87RX5-56">
          <mxGeometry width="50" height="50" relative="1" as="geometry">
            <mxPoint x="120" y="549.5" as="sourcePoint" />
            <mxPoint x="240" y="549.5" as="targetPoint" />
          </mxGeometry>
        </mxCell>
        <mxCell id="xJTKoWSTELKvaRM87RX5-56" value="" style="shape=waypoint;sketch=0;fillStyle=solid;size=6;pointerEvents=1;points=[];fillColor=none;resizable=0;rotatable=0;perimeter=centerPerimeter;snapToPoint=1;strokeWidth=10;strokeColor=#00CC00;" vertex="1" parent="1">
          <mxGeometry x="110" y="540" width="20" height="20" as="geometry" />
        </mxCell>
        <mxCell id="xJTKoWSTELKvaRM87RX5-57" value="" style="endArrow=classic;html=1;rounded=0;strokeColor=#004C99;strokeWidth=3;dashed=1;" edge="1" parent="1">
          <mxGeometry width="50" height="50" relative="1" as="geometry">
            <mxPoint x="420" y="540" as="sourcePoint" />
            <mxPoint x="560" y="540" as="targetPoint" />
          </mxGeometry>
        </mxCell>
        <mxCell id="xJTKoWSTELKvaRM87RX5-58" value="" style="endArrow=classic;html=1;rounded=0;strokeColor=#3399FF;strokeWidth=3;dashed=1;" edge="1" parent="1">
          <mxGeometry width="50" height="50" relative="1" as="geometry">
            <mxPoint x="700" y="540" as="sourcePoint" />
            <mxPoint x="600" y="540" as="targetPoint" />
          </mxGeometry>
        </mxCell>
        <mxCell id="xJTKoWSTELKvaRM87RX5-59" value="start" style="text;html=1;align=center;verticalAlign=middle;whiteSpace=wrap;rounded=0;fontFamily=consolas;fontSize=16;fontColor=#00CC00;" vertex="1" parent="1">
          <mxGeometry x="50" y="535" width="60" height="30" as="geometry" />
        </mxCell>
      </root>
    </mxGraphModel>
  </diagram>
</mxfile>
